<svg width="205" height="234" viewBox="0 0 205 234" fill="none" xmlns="http://www.w3.org/2000/svg">
<path d="M163 101.5C126.577 70.044 92 53.5 43 50.5C98.5 1.50006 164.5 42.5 163 101.5Z" fill="#FF6F61"/>
<path d="M89.5 58.5791C116.231 66.7845 139.222 80.9646 163 101.5L113.5 87.5C113.5 87.5 89.0628 76.5442 72.5 72.5C57.1821 68.7597 32.5 67 32.5 67C32.5 67 47.5 57 89.5 58.5791Z" fill="#FF9287"/>
<path d="M72.5 72.5C57.1821 68.7598 32.5 67 32.5 67C26.5 77.5 25.6836 86.8697 26 98C72.5 102 104 114 140 147C148.379 139.668 154.025 131.407 158 121C144 106 131 97 113.5 87.5C113.5 87.5 89.0628 76.5443 72.5 72.5Z" fill="#FCC7C2"/>
<path d="M79.5 108.733C100.593 116.311 119.572 128.274 140 147C125.6 143.049 111.116 139.559 96.5 136.5C74.9858 124.284 52.6492 118.025 28 115.5C44.8812 109.163 61.4931 107.343 79.5 108.733Z" fill="#637284"/>
<path d="M96.5 136.5C74.9858 124.284 52.6492 118.025 28 115.5C41.5 154 79.5 177 126 157.5C117 149 107.5 143 96.5 136.5Z" fill="#34495E"/>
<path d="M97 0C112.56 0.723701 131.5 8 126 28C110 34.5 98.5 15.5 97 0Z" fill="#637284"/>
<path d="M97 0C114.5 11.5 116.5 15.5 126 28C110 34.5 98.5 15.5 97 0Z" fill="#34495E"/>
<path d="M127.523 29.2669C140.5 5 165 17 180 30.5C161.5 44 136 47.5 127.523 29.2669Z" fill="#637284"/>
<path d="M127.523 29.2669C144 24.5 157.5 26 180 30.5C161.5 44 136 47.5 127.523 29.2669Z" fill="#34495E"/>
<mask id="path-10-outside-1_18_2" maskUnits="userSpaceOnUse" x="73" y="185" width="131" height="38" fill="black">
<rect fill="white" x="73" y="185" width="131" height="38"/>
<path d="M77.856 221.48C76.896 221.48 76.128 221.224 75.552 220.712C74.976 220.2 74.688 219.496 74.688 218.6V198.824C74.688 195.112 75.744 192.2 77.856 190.088C79.968 187.976 82.88 186.92 86.592 186.92C88.384 186.92 90.064 187.368 91.632 188.264C93.232 189.128 94.608 190.376 95.76 192.008C96.88 190.344 98.224 189.08 99.792 188.216C101.392 187.352 103.12 186.92 104.976 186.92C108.688 186.92 111.6 187.976 113.712 190.088C115.824 192.2 116.88 195.112 116.88 198.824V218.6C116.88 219.464 116.576 220.168 115.968 220.712C115.392 221.224 114.624 221.48 113.664 221.48C112.704 221.48 111.936 221.224 111.36 220.712C110.784 220.2 110.496 219.496 110.496 218.6V198.824C110.496 196.392 110.048 194.648 109.152 193.592C108.256 192.504 106.784 191.96 104.736 191.96C102.88 191.96 101.44 192.552 100.416 193.736C99.424 194.92 98.928 196.616 98.928 198.824V218.6C98.928 219.496 98.64 220.2 98.064 220.712C97.488 221.224 96.72 221.48 95.76 221.48C94.8 221.48 94.032 221.224 93.456 220.712C92.912 220.2 92.64 219.496 92.64 218.6V198.824C92.64 196.68 92.128 195 91.104 193.784C90.08 192.568 88.656 191.96 86.832 191.96C84.784 191.96 83.312 192.504 82.416 193.592C81.52 194.648 81.072 196.392 81.072 198.824V218.6C81.072 219.464 80.768 220.168 80.16 220.712C79.584 221.224 78.816 221.48 77.856 221.48ZM127.642 194.024C126.458 194.024 125.498 193.704 124.762 193.064C124.058 192.392 123.706 191.528 123.706 190.472C123.706 189.416 124.058 188.568 124.762 187.928C125.498 187.256 126.458 186.92 127.642 186.92C128.826 186.92 129.786 187.256 130.522 187.928C131.29 188.568 131.674 189.416 131.674 190.472C131.674 191.528 131.29 192.392 130.522 193.064C129.786 193.704 128.826 194.024 127.642 194.024ZM127.69 221.48C126.698 221.48 125.93 221.224 125.386 220.712C124.842 220.2 124.57 219.496 124.57 218.6V199.88C124.57 198.984 124.842 198.28 125.386 197.768C125.93 197.256 126.698 197 127.69 197C128.65 197 129.418 197.256 129.994 197.768C130.57 198.28 130.858 198.984 130.858 199.88V218.6C130.858 219.496 130.57 220.2 129.994 220.712C129.418 221.224 128.65 221.48 127.69 221.48ZM147.601 221.48C145.617 221.48 143.857 221.144 142.321 220.472C140.817 219.8 139.633 218.872 138.769 217.688C137.937 216.472 137.521 215.08 137.521 213.512C137.521 211.144 138.497 209.256 140.449 207.848C142.433 206.44 145.105 205.736 148.465 205.736C151.377 205.736 153.713 206.36 155.473 207.608V206.456C155.473 204.952 155.009 203.8 154.081 203C153.153 202.2 151.809 201.8 150.049 201.8C147.425 201.8 145.169 202.36 143.281 203.48C142.481 203.928 141.793 204.152 141.217 204.152C140.513 204.152 139.889 203.832 139.345 203.192C138.993 202.744 138.817 202.28 138.817 201.8C138.817 201 139.233 200.296 140.065 199.688C141.217 198.856 142.673 198.2 144.433 197.72C146.193 197.24 148.049 197 150.001 197C153.713 197 156.625 197.848 158.737 199.544C160.881 201.208 161.953 203.512 161.953 206.456V218.792C161.953 219.624 161.665 220.28 161.089 220.76C160.545 221.24 159.793 221.48 158.833 221.48C157.841 221.48 157.073 221.256 156.529 220.808C155.985 220.36 155.713 219.72 155.713 218.888V218.36C153.889 220.44 151.185 221.48 147.601 221.48ZM149.089 217.064C151.105 217.064 152.673 216.76 153.793 216.152C154.945 215.512 155.521 214.632 155.521 213.512C155.521 212.456 154.945 211.608 153.793 210.968C152.641 210.328 151.105 210.008 149.185 210.008C147.457 210.008 146.113 210.312 145.153 210.92C144.225 211.528 143.761 212.392 143.761 213.512C143.761 214.632 144.225 215.512 145.153 216.152C146.081 216.76 147.393 217.064 149.089 217.064ZM171.166 221.48C170.174 221.48 169.406 221.224 168.862 220.712C168.318 220.2 168.046 219.496 168.046 218.6V199.88C168.046 198.984 168.318 198.28 168.862 197.768C169.406 197.256 170.174 197 171.166 197C172.126 197 172.894 197.256 173.47 197.768C174.046 198.28 174.334 198.984 174.334 199.88V201.032C175.07 199.752 175.998 198.76 177.118 198.056C178.238 197.352 179.454 197 180.766 197C182.11 197 183.326 197.368 184.414 198.104C185.502 198.808 186.318 199.784 186.862 201.032C189.134 198.344 191.71 197 194.59 197C197.15 197 199.15 197.896 200.59 199.688C202.03 201.48 202.75 203.976 202.75 207.176V218.6C202.75 219.496 202.462 220.2 201.886 220.712C201.31 221.224 200.542 221.48 199.582 221.48C198.59 221.48 197.822 221.224 197.278 220.712C196.734 220.2 196.462 219.496 196.462 218.6V206.792C196.462 205.224 196.174 204.04 195.598 203.24C195.054 202.408 194.238 201.992 193.15 201.992C192.222 201.992 191.406 202.248 190.702 202.76C189.998 203.272 189.342 204.088 188.734 205.208V218.6C188.734 219.496 188.446 220.2 187.87 220.712C187.294 221.224 186.526 221.48 185.566 221.48C184.574 221.48 183.806 221.224 183.262 220.712C182.718 220.2 182.446 219.496 182.446 218.6V207.8C182.446 203.928 181.342 201.992 179.134 201.992C177.63 201.992 176.446 202.584 175.582 203.768C174.75 204.952 174.334 206.584 174.334 208.664V218.6C174.334 219.496 174.046 220.2 173.47 220.712C172.894 221.224 172.126 221.48 171.166 221.48Z"/>
</mask>
<path d="M77.856 221.48C76.896 221.48 76.128 221.224 75.552 220.712C74.976 220.2 74.688 219.496 74.688 218.6V198.824C74.688 195.112 75.744 192.2 77.856 190.088C79.968 187.976 82.88 186.92 86.592 186.92C88.384 186.92 90.064 187.368 91.632 188.264C93.232 189.128 94.608 190.376 95.76 192.008C96.88 190.344 98.224 189.08 99.792 188.216C101.392 187.352 103.12 186.92 104.976 186.92C108.688 186.92 111.6 187.976 113.712 190.088C115.824 192.2 116.88 195.112 116.88 198.824V218.6C116.88 219.464 116.576 220.168 115.968 220.712C115.392 221.224 114.624 221.48 113.664 221.48C112.704 221.48 111.936 221.224 111.36 220.712C110.784 220.2 110.496 219.496 110.496 218.6V198.824C110.496 196.392 110.048 194.648 109.152 193.592C108.256 192.504 106.784 191.96 104.736 191.96C102.88 191.96 101.44 192.552 100.416 193.736C99.424 194.92 98.928 196.616 98.928 198.824V218.6C98.928 219.496 98.64 220.2 98.064 220.712C97.488 221.224 96.72 221.48 95.76 221.48C94.8 221.48 94.032 221.224 93.456 220.712C92.912 220.2 92.64 219.496 92.64 218.6V198.824C92.64 196.68 92.128 195 91.104 193.784C90.08 192.568 88.656 191.96 86.832 191.96C84.784 191.96 83.312 192.504 82.416 193.592C81.52 194.648 81.072 196.392 81.072 198.824V218.6C81.072 219.464 80.768 220.168 80.16 220.712C79.584 221.224 78.816 221.48 77.856 221.48ZM127.642 194.024C126.458 194.024 125.498 193.704 124.762 193.064C124.058 192.392 123.706 191.528 123.706 190.472C123.706 189.416 124.058 188.568 124.762 187.928C125.498 187.256 126.458 186.92 127.642 186.92C128.826 186.92 129.786 187.256 130.522 187.928C131.29 188.568 131.674 189.416 131.674 190.472C131.674 191.528 131.29 192.392 130.522 193.064C129.786 193.704 128.826 194.024 127.642 194.024ZM127.69 221.48C126.698 221.48 125.93 221.224 125.386 220.712C124.842 220.2 124.57 219.496 124.57 218.6V199.88C124.57 198.984 124.842 198.28 125.386 197.768C125.93 197.256 126.698 197 127.69 197C128.65 197 129.418 197.256 129.994 197.768C130.57 198.28 130.858 198.984 130.858 199.88V218.6C130.858 219.496 130.57 220.2 129.994 220.712C129.418 221.224 128.65 221.48 127.69 221.48ZM147.601 221.48C145.617 221.48 143.857 221.144 142.321 220.472C140.817 219.8 139.633 218.872 138.769 217.688C137.937 216.472 137.521 215.08 137.521 213.512C137.521 211.144 138.497 209.256 140.449 207.848C142.433 206.44 145.105 205.736 148.465 205.736C151.377 205.736 153.713 206.36 155.473 207.608V206.456C155.473 204.952 155.009 203.8 154.081 203C153.153 202.2 151.809 201.8 150.049 201.8C147.425 201.8 145.169 202.36 143.281 203.48C142.481 203.928 141.793 204.152 141.217 204.152C140.513 204.152 139.889 203.832 139.345 203.192C138.993 202.744 138.817 202.28 138.817 201.8C138.817 201 139.233 200.296 140.065 199.688C141.217 198.856 142.673 198.2 144.433 197.72C146.193 197.24 148.049 197 150.001 197C153.713 197 156.625 197.848 158.737 199.544C160.881 201.208 161.953 203.512 161.953 206.456V218.792C161.953 219.624 161.665 220.28 161.089 220.76C160.545 221.24 159.793 221.48 158.833 221.48C157.841 221.48 157.073 221.256 156.529 220.808C155.985 220.36 155.713 219.72 155.713 218.888V218.36C153.889 220.44 151.185 221.48 147.601 221.48ZM149.089 217.064C151.105 217.064 152.673 216.76 153.793 216.152C154.945 215.512 155.521 214.632 155.521 213.512C155.521 212.456 154.945 211.608 153.793 210.968C152.641 210.328 151.105 210.008 149.185 210.008C147.457 210.008 146.113 210.312 145.153 210.92C144.225 211.528 143.761 212.392 143.761 213.512C143.761 214.632 144.225 215.512 145.153 216.152C146.081 216.76 147.393 217.064 149.089 217.064ZM171.166 221.48C170.174 221.48 169.406 221.224 168.862 220.712C168.318 220.2 168.046 219.496 168.046 218.6V199.88C168.046 198.984 168.318 198.28 168.862 197.768C169.406 197.256 170.174 197 171.166 197C172.126 197 172.894 197.256 173.47 197.768C174.046 198.28 174.334 198.984 174.334 199.88V201.032C175.07 199.752 175.998 198.76 177.118 198.056C178.238 197.352 179.454 197 180.766 197C182.11 197 183.326 197.368 184.414 198.104C185.502 198.808 186.318 199.784 186.862 201.032C189.134 198.344 191.71 197 194.59 197C197.15 197 199.15 197.896 200.59 199.688C202.03 201.48 202.75 203.976 202.75 207.176V218.6C202.75 219.496 202.462 220.2 201.886 220.712C201.31 221.224 200.542 221.48 199.582 221.48C198.59 221.48 197.822 221.224 197.278 220.712C196.734 220.2 196.462 219.496 196.462 218.6V206.792C196.462 205.224 196.174 204.04 195.598 203.24C195.054 202.408 194.238 201.992 193.15 201.992C192.222 201.992 191.406 202.248 190.702 202.76C189.998 203.272 189.342 204.088 188.734 205.208V218.6C188.734 219.496 188.446 220.2 187.87 220.712C187.294 221.224 186.526 221.48 185.566 221.48C184.574 221.48 183.806 221.224 183.262 220.712C182.718 220.2 182.446 219.496 182.446 218.6V207.8C182.446 203.928 181.342 201.992 179.134 201.992C177.63 201.992 176.446 202.584 175.582 203.768C174.75 204.952 174.334 206.584 174.334 208.664V218.6C174.334 219.496 174.046 220.2 173.47 220.712C172.894 221.224 172.126 221.48 171.166 221.48Z" fill="#FF6F61"/>
<path d="M75.552 220.712L74.8876 221.459H74.8876L75.552 220.712ZM77.856 190.088L77.1489 189.381L77.1489 189.381L77.856 190.088ZM91.632 188.264L91.1359 189.132L91.1463 189.138L91.1569 189.144L91.632 188.264ZM95.76 192.008L94.943 192.585L95.7796 193.77L96.5896 192.566L95.76 192.008ZM99.792 188.216L99.3168 187.336L99.3094 187.34L99.792 188.216ZM115.968 220.712L116.632 221.459L116.635 221.457L115.968 220.712ZM111.36 220.712L110.696 221.459L111.36 220.712ZM109.152 193.592L108.38 194.228L108.385 194.233L108.389 194.239L109.152 193.592ZM100.416 193.736L99.6596 193.082L99.6545 193.088L99.6495 193.094L100.416 193.736ZM98.064 220.712L98.7284 221.459L98.064 220.712ZM93.456 220.712L92.7706 221.44L92.781 221.45L92.7916 221.459L93.456 220.712ZM91.104 193.784L91.8689 193.14H91.8689L91.104 193.784ZM82.416 193.592L83.1785 194.239L83.1833 194.233L83.1879 194.228L82.416 193.592ZM80.16 220.712L80.8244 221.459L80.8268 221.457L80.16 220.712ZM77.856 220.48C77.0784 220.48 76.5674 220.277 76.2164 219.965L74.8876 221.459C75.6886 222.171 76.7136 222.48 77.856 222.48V220.48ZM76.2164 219.965C75.8893 219.674 75.688 219.262 75.688 218.6H73.688C73.688 219.73 74.0627 220.726 74.8876 221.459L76.2164 219.965ZM75.688 218.6V198.824H73.688V218.6H75.688ZM75.688 198.824C75.688 195.309 76.6819 192.676 78.5631 190.795L77.1489 189.381C74.8061 191.724 73.688 194.915 73.688 198.824H75.688ZM78.5631 190.795C80.4443 188.914 83.0771 187.92 86.592 187.92V185.92C82.6829 185.92 79.4917 187.038 77.1489 189.381L78.5631 190.795ZM86.592 187.92C88.2086 187.92 89.7177 188.322 91.1359 189.132L92.1281 187.396C90.4103 186.414 88.5594 185.92 86.592 185.92V187.92ZM91.1569 189.144C92.6081 189.928 93.8711 191.066 94.943 192.585L96.577 191.431C95.3449 189.686 93.8559 188.328 92.1071 187.384L91.1569 189.144ZM96.5896 192.566C97.6316 191.018 98.8619 189.87 100.275 189.092L99.3094 187.34C97.5861 188.29 96.1284 189.67 94.9304 191.45L96.5896 192.566ZM100.267 189.096C101.718 188.312 103.282 187.92 104.976 187.92V185.92C102.958 185.92 101.066 186.392 99.3169 187.336L100.267 189.096ZM104.976 187.92C108.491 187.92 111.124 188.914 113.005 190.795L114.419 189.381C112.076 187.038 108.885 185.92 104.976 185.92V187.92ZM113.005 190.795C114.886 192.676 115.88 195.309 115.88 198.824H117.88C117.88 194.915 116.762 191.724 114.419 189.381L113.005 190.795ZM115.88 198.824V218.6H117.88V198.824H115.88ZM115.88 218.6C115.88 219.198 115.683 219.625 115.301 219.967L116.635 221.457C117.469 220.711 117.88 219.73 117.88 218.6H115.88ZM115.304 219.965C114.953 220.277 114.442 220.48 113.664 220.48V222.48C114.806 222.48 115.831 222.171 116.632 221.459L115.304 219.965ZM113.664 220.48C112.886 220.48 112.375 220.277 112.024 219.965L110.696 221.459C111.497 222.171 112.522 222.48 113.664 222.48V220.48ZM112.024 219.965C111.697 219.674 111.496 219.262 111.496 218.6H109.496C109.496 219.73 109.871 220.726 110.696 221.459L112.024 219.965ZM111.496 218.6V198.824H109.496V218.6H111.496ZM111.496 198.824C111.496 196.317 111.043 194.275 109.915 192.945L108.389 194.239C109.053 195.021 109.496 196.467 109.496 198.824H111.496ZM109.924 192.956C108.764 191.548 106.943 190.96 104.736 190.96V192.96C106.625 192.96 107.748 193.46 108.38 194.228L109.924 192.956ZM104.736 190.96C102.649 190.96 100.909 191.637 99.6596 193.082L101.172 194.39C101.971 193.467 103.111 192.96 104.736 192.96V190.96ZM99.6495 193.094C98.4534 194.521 97.928 196.48 97.928 198.824H99.928C99.928 196.752 100.395 195.319 101.183 194.378L99.6495 193.094ZM97.928 198.824V218.6H99.928V198.824H97.928ZM97.928 218.6C97.928 219.262 97.7267 219.674 97.3996 219.965L98.7284 221.459C99.5533 220.726 99.928 219.73 99.928 218.6H97.928ZM97.3996 219.965C97.0486 220.277 96.5376 220.48 95.76 220.48V222.48C96.9024 222.48 97.9274 222.171 98.7284 221.459L97.3996 219.965ZM95.76 220.48C94.9824 220.48 94.4714 220.277 94.1204 219.965L92.7916 221.459C93.5926 222.171 94.6176 222.48 95.76 222.48V220.48ZM94.1414 219.984C93.8377 219.698 93.64 219.28 93.64 218.6H91.64C91.64 219.712 91.9863 220.702 92.7706 221.44L94.1414 219.984ZM93.64 218.6V198.824H91.64V218.6H93.64ZM93.64 198.824C93.64 196.527 93.0905 194.591 91.8689 193.14L90.3391 194.428C91.1655 195.409 91.64 196.833 91.64 198.824H93.64ZM91.8689 193.14C90.6257 191.664 88.9024 190.96 86.832 190.96V192.96C88.4096 192.96 89.5343 193.472 90.3391 194.428L91.8689 193.14ZM86.832 190.96C84.625 190.96 82.8039 191.548 81.6441 192.956L83.1879 194.228C83.8201 193.46 84.943 192.96 86.832 192.96V190.96ZM81.6535 192.945C80.5247 194.275 80.072 196.317 80.072 198.824H82.072C82.072 196.467 82.5153 195.021 83.1785 194.239L81.6535 192.945ZM80.072 198.824V218.6H82.072V198.824H80.072ZM80.072 218.6C80.072 219.198 79.8754 219.625 79.4932 219.967L80.8268 221.457C81.6606 220.711 82.072 219.73 82.072 218.6H80.072ZM79.4956 219.965C79.1446 220.277 78.6336 220.48 77.856 220.48V222.48C78.9984 222.48 80.0234 222.171 80.8244 221.459L79.4956 219.965ZM124.762 193.064L124.072 193.787L124.088 193.803L124.106 193.819L124.762 193.064ZM124.762 187.928L125.435 188.668L125.436 188.666L124.762 187.928ZM130.522 187.928L129.848 188.666L129.865 188.682L129.882 188.696L130.522 187.928ZM130.522 193.064L131.178 193.819L131.181 193.817L130.522 193.064ZM125.386 220.712L124.701 221.44L125.386 220.712ZM125.386 197.768L124.701 197.04L125.386 197.768ZM129.994 197.768L130.658 197.021L129.994 197.768ZM129.994 220.712L129.33 219.965L129.994 220.712ZM127.642 193.024C126.645 193.024 125.935 192.759 125.418 192.309L124.106 193.819C125.061 194.649 126.271 195.024 127.642 195.024V193.024ZM125.453 192.341C124.964 191.874 124.706 191.281 124.706 190.472H122.706C122.706 191.775 123.152 192.91 124.072 193.787L125.453 192.341ZM124.706 190.472C124.706 189.663 124.963 189.096 125.435 188.668L124.089 187.188C123.153 188.04 122.706 189.169 122.706 190.472H124.706ZM125.436 188.666C125.954 188.193 126.658 187.92 127.642 187.92V185.92C126.258 185.92 125.042 186.319 124.088 187.19L125.436 188.666ZM127.642 187.92C128.626 187.92 129.33 188.193 129.848 188.666L131.196 187.19C130.242 186.319 129.026 185.92 127.642 185.92V187.92ZM129.882 188.696C130.408 189.134 130.674 189.694 130.674 190.472H132.674C132.674 189.138 132.173 188.002 131.162 187.16L129.882 188.696ZM130.674 190.472C130.674 191.251 130.406 191.837 129.864 192.311L131.181 193.817C132.174 192.947 132.674 191.805 132.674 190.472H130.674ZM129.866 192.309C129.349 192.759 128.639 193.024 127.642 193.024V195.024C129.013 195.024 130.223 194.649 131.178 193.819L129.866 192.309ZM127.69 220.48C126.867 220.48 126.376 220.27 126.071 219.984L124.701 221.44C125.484 222.178 126.529 222.48 127.69 222.48V220.48ZM126.071 219.984C125.768 219.698 125.57 219.28 125.57 218.6H123.57C123.57 219.712 123.916 220.702 124.701 221.44L126.071 219.984ZM125.57 218.6V199.88H123.57V218.6H125.57ZM125.57 199.88C125.57 199.2 125.768 198.782 126.071 198.496L124.701 197.04C123.916 197.778 123.57 198.768 123.57 199.88H125.57ZM126.071 198.496C126.376 198.21 126.867 198 127.69 198V196C126.529 196 125.484 196.302 124.701 197.04L126.071 198.496ZM127.69 198C128.468 198 128.979 198.203 129.33 198.515L130.658 197.021C129.858 196.309 128.833 196 127.69 196V198ZM129.33 198.515C129.657 198.806 129.858 199.218 129.858 199.88H131.858C131.858 198.75 131.483 197.754 130.658 197.021L129.33 198.515ZM129.858 199.88V218.6H131.858V199.88H129.858ZM129.858 218.6C129.858 219.262 129.657 219.674 129.33 219.965L130.658 221.459C131.483 220.726 131.858 219.73 131.858 218.6H129.858ZM129.33 219.965C128.979 220.277 128.468 220.48 127.69 220.48V222.48C128.833 222.48 129.858 222.171 130.658 221.459L129.33 219.965ZM142.321 220.472L141.913 221.385L141.92 221.388L142.321 220.472ZM138.769 217.688L137.944 218.253L137.952 218.265L137.961 218.277L138.769 217.688ZM140.449 207.848L139.87 207.032L139.864 207.037L140.449 207.848ZM155.473 207.608L154.895 208.424L156.473 209.543V207.608H155.473ZM154.081 203L154.734 202.243L154.081 203ZM143.281 203.48L143.77 204.353L143.781 204.346L143.791 204.34L143.281 203.48ZM139.345 203.192L138.559 203.81L138.571 203.825L138.583 203.84L139.345 203.192ZM140.065 199.688L139.48 198.877L139.475 198.881L140.065 199.688ZM158.737 199.544L158.111 200.324L158.117 200.329L158.124 200.334L158.737 199.544ZM161.089 220.76L160.449 219.992L160.438 220.001L160.428 220.01L161.089 220.76ZM156.529 220.808L155.893 221.58L156.529 220.808ZM155.713 218.36H156.713V215.703L154.961 217.701L155.713 218.36ZM153.793 216.152L154.27 217.031L154.279 217.026L153.793 216.152ZM153.793 210.968L154.279 210.094L153.793 210.968ZM145.153 210.92L144.618 210.075L144.612 210.079L144.605 210.084L145.153 210.92ZM145.153 216.152L144.585 216.975L144.595 216.982L144.605 216.988L145.153 216.152ZM147.601 220.48C145.73 220.48 144.111 220.163 142.722 219.556L141.92 221.388C143.604 222.125 145.504 222.48 147.601 222.48V220.48ZM142.729 219.559C141.364 218.949 140.326 218.125 139.577 217.099L137.961 218.277C138.94 219.619 140.27 220.651 141.913 221.385L142.729 219.559ZM139.594 217.123C138.884 216.085 138.521 214.892 138.521 213.512H136.521C136.521 215.268 136.991 216.859 137.944 218.253L139.594 217.123ZM138.521 213.512C138.521 211.472 139.338 209.883 141.034 208.659L139.864 207.037C137.657 208.629 136.521 210.816 136.521 213.512H138.521ZM141.028 208.664C142.789 207.413 145.235 206.736 148.465 206.736V204.736C144.975 204.736 142.077 205.467 139.87 207.032L141.028 208.664ZM148.465 206.736C151.241 206.736 153.354 207.331 154.895 208.424L156.052 206.792C154.072 205.389 151.513 204.736 148.465 204.736V206.736ZM156.473 207.608V206.456H154.473V207.608H156.473ZM156.473 206.456C156.473 204.733 155.932 203.275 154.734 202.243L153.428 203.757C154.087 204.325 154.473 205.171 154.473 206.456H156.473ZM154.734 202.243C153.559 201.23 151.946 200.8 150.049 200.8V202.8C151.672 202.8 152.747 203.17 153.428 203.757L154.734 202.243ZM150.049 200.8C147.281 200.8 144.841 201.392 142.771 202.62L143.791 204.34C145.497 203.328 147.569 202.8 150.049 202.8V200.8ZM142.793 202.607C142.062 203.017 141.549 203.152 141.217 203.152V205.152C142.037 205.152 142.9 204.839 143.77 204.353L142.793 202.607ZM141.217 203.152C140.864 203.152 140.501 203.008 140.107 202.544L138.583 203.84C139.277 204.656 140.163 205.152 141.217 205.152V203.152ZM140.131 202.574C139.891 202.268 139.817 202.016 139.817 201.8H137.817C137.817 202.544 138.095 203.22 138.559 203.81L140.131 202.574ZM139.817 201.8C139.817 201.409 139.999 200.975 140.655 200.495L139.475 198.881C138.467 199.617 137.817 200.591 137.817 201.8H139.817ZM140.651 200.499C141.682 199.754 143.021 199.142 144.696 198.685L144.17 196.755C142.325 197.258 140.752 197.958 139.48 198.877L140.651 200.499ZM144.696 198.685C146.365 198.23 148.132 198 150.001 198V196C147.966 196 146.022 196.25 144.17 196.755L144.696 198.685ZM150.001 198C153.569 198 156.232 198.815 158.111 200.324L159.363 198.764C157.018 196.881 153.857 196 150.001 196V198ZM158.124 200.334C160.001 201.791 160.953 203.791 160.953 206.456H162.953C162.953 203.233 161.761 200.625 159.35 198.754L158.124 200.334ZM160.953 206.456V218.792H162.953V206.456H160.953ZM160.953 218.792C160.953 219.364 160.77 219.724 160.449 219.992L161.729 221.528C162.56 220.836 162.953 219.884 162.953 218.792H160.953ZM160.428 220.01C160.118 220.283 159.63 220.48 158.833 220.48V222.48C159.957 222.48 160.972 222.197 161.751 221.51L160.428 220.01ZM158.833 220.48C157.98 220.48 157.469 220.287 157.165 220.036L155.893 221.58C156.677 222.225 157.702 222.48 158.833 222.48V220.48ZM157.165 220.036C156.894 219.813 156.713 219.481 156.713 218.888H154.713C154.713 219.959 155.076 220.907 155.893 221.58L157.165 220.036ZM156.713 218.888V218.36H154.713V218.888H156.713ZM154.961 217.701C153.38 219.504 150.988 220.48 147.601 220.48V222.48C151.382 222.48 154.399 221.376 156.465 219.019L154.961 217.701ZM149.089 218.064C151.184 218.064 152.942 217.752 154.27 217.031L153.316 215.273C152.404 215.768 151.026 216.064 149.089 216.064V218.064ZM154.279 217.026C155.681 216.247 156.521 215.066 156.521 213.512H154.521C154.521 214.198 154.209 214.777 153.307 215.278L154.279 217.026ZM156.521 213.512C156.521 211.998 155.656 210.859 154.279 210.094L153.307 211.842C154.234 212.357 154.521 212.914 154.521 213.512H156.521ZM154.279 210.094C152.926 209.342 151.203 209.008 149.185 209.008V211.008C151.008 211.008 152.357 211.314 153.307 211.842L154.279 210.094ZM149.185 209.008C147.359 209.008 145.801 209.326 144.618 210.075L145.688 211.765C146.425 211.298 147.555 211.008 149.185 211.008V209.008ZM144.605 210.084C143.392 210.878 142.761 212.059 142.761 213.512H144.761C144.761 212.725 145.058 212.178 145.701 211.756L144.605 210.084ZM142.761 213.512C142.761 214.963 143.389 216.15 144.585 216.975L145.721 215.329C145.061 214.874 144.761 214.301 144.761 213.512H142.761ZM144.605 216.988C145.761 217.746 147.294 218.064 149.089 218.064V216.064C147.492 216.064 146.401 215.774 145.701 215.316L144.605 216.988ZM168.862 220.712L168.177 221.44L168.862 220.712ZM168.862 197.768L168.177 197.04L168.862 197.768ZM173.47 197.768L174.134 197.021V197.021L173.47 197.768ZM174.334 201.032H173.334V204.777L175.201 201.53L174.334 201.032ZM177.118 198.056L177.65 198.903L177.118 198.056ZM184.414 198.104L183.854 198.932L183.862 198.938L183.871 198.944L184.414 198.104ZM186.862 201.032L185.945 201.432L186.588 202.906L187.626 201.678L186.862 201.032ZM200.59 199.688L201.37 199.062L200.59 199.688ZM201.886 220.712L202.55 221.459L201.886 220.712ZM197.278 220.712L196.593 221.44L197.278 220.712ZM195.598 203.24L194.761 203.787L194.773 203.806L194.787 203.824L195.598 203.24ZM190.702 202.76L190.114 201.951L190.702 202.76ZM188.734 205.208L187.855 204.731L187.734 204.954V205.208H188.734ZM187.87 220.712L188.534 221.459L187.87 220.712ZM183.262 220.712L182.577 221.44L183.262 220.712ZM175.582 203.768L174.774 203.179L174.769 203.186L174.764 203.193L175.582 203.768ZM173.47 220.712L174.134 221.459L173.47 220.712ZM171.166 220.48C170.343 220.48 169.852 220.27 169.547 219.984L168.177 221.44C168.96 222.178 170.005 222.48 171.166 222.48V220.48ZM169.547 219.984C169.244 219.698 169.046 219.28 169.046 218.6H167.046C167.046 219.712 167.392 220.702 168.177 221.44L169.547 219.984ZM169.046 218.6V199.88H167.046V218.6H169.046ZM169.046 199.88C169.046 199.2 169.244 198.782 169.547 198.496L168.177 197.04C167.392 197.778 167.046 198.768 167.046 199.88H169.046ZM169.547 198.496C169.852 198.21 170.343 198 171.166 198V196C170.005 196 168.96 196.302 168.177 197.04L169.547 198.496ZM171.166 198C171.944 198 172.455 198.203 172.806 198.515L174.134 197.021C173.334 196.309 172.309 196 171.166 196V198ZM172.806 198.515C173.133 198.806 173.334 199.218 173.334 199.88H175.334C175.334 198.75 174.959 197.754 174.134 197.021L172.806 198.515ZM173.334 199.88V201.032H175.334V199.88H173.334ZM175.201 201.53C175.865 200.375 176.684 199.51 177.65 198.903L176.586 197.209C175.312 198.01 174.275 199.129 173.467 200.534L175.201 201.53ZM177.65 198.903C178.612 198.298 179.644 198 180.766 198V196C179.264 196 177.864 196.406 176.586 197.209L177.65 198.903ZM180.766 198C181.915 198 182.935 198.311 183.854 198.932L184.974 197.276C183.717 196.425 182.305 196 180.766 196V198ZM183.871 198.944C184.785 199.535 185.476 200.354 185.945 201.432L187.779 200.632C187.16 199.214 186.219 198.081 184.957 197.264L183.871 198.944ZM187.626 201.678C189.754 199.16 192.069 198 194.59 198V196C191.351 196 188.514 197.528 186.098 200.386L187.626 201.678ZM194.59 198C196.886 198 198.584 198.787 199.811 200.314L201.37 199.062C199.717 197.005 197.414 196 194.59 196V198ZM199.811 200.314C201.061 201.871 201.75 204.116 201.75 207.176H203.75C203.75 203.836 202.999 201.089 201.37 199.062L199.811 200.314ZM201.75 207.176V218.6H203.75V207.176H201.75ZM201.75 218.6C201.75 219.262 201.549 219.674 201.222 219.965L202.55 221.459C203.375 220.726 203.75 219.73 203.75 218.6H201.75ZM201.222 219.965C200.871 220.277 200.36 220.48 199.582 220.48V222.48C200.725 222.48 201.75 222.171 202.55 221.459L201.222 219.965ZM199.582 220.48C198.759 220.48 198.268 220.27 197.963 219.984L196.593 221.44C197.376 222.178 198.421 222.48 199.582 222.48V220.48ZM197.963 219.984C197.66 219.698 197.462 219.28 197.462 218.6H195.462C195.462 219.712 195.808 220.702 196.593 221.44L197.963 219.984ZM197.462 218.6V206.792H195.462V218.6H197.462ZM197.462 206.792C197.462 205.129 197.161 203.7 196.41 202.656L194.787 203.824C195.187 204.38 195.462 205.319 195.462 206.792H197.462ZM196.435 202.693C195.687 201.548 194.538 200.992 193.15 200.992V202.992C193.938 202.992 194.422 203.268 194.761 203.787L196.435 202.693ZM193.15 200.992C192.026 200.992 191 201.307 190.114 201.951L191.29 203.569C191.812 203.189 192.419 202.992 193.15 202.992V200.992ZM190.114 201.951C189.247 202.582 188.504 203.536 187.855 204.731L189.613 205.685C190.18 204.64 190.749 203.962 191.29 203.569L190.114 201.951ZM187.734 205.208V218.6H189.734V205.208H187.734ZM187.734 218.6C187.734 219.262 187.533 219.674 187.206 219.965L188.534 221.459C189.359 220.726 189.734 219.73 189.734 218.6H187.734ZM187.206 219.965C186.855 220.277 186.344 220.48 185.566 220.48V222.48C186.709 222.48 187.734 222.171 188.534 221.459L187.206 219.965ZM185.566 220.48C184.743 220.48 184.252 220.27 183.947 219.984L182.577 221.44C183.36 222.178 184.405 222.48 185.566 222.48V220.48ZM183.947 219.984C183.644 219.698 183.446 219.28 183.446 218.6H181.446C181.446 219.712 181.792 220.702 182.577 221.44L183.947 219.984ZM183.446 218.6V207.8H181.446V218.6H183.446ZM183.446 207.8C183.446 205.802 183.167 204.141 182.487 202.949C181.759 201.672 180.601 200.992 179.134 200.992V202.992C179.875 202.992 180.373 203.28 180.749 203.939C181.173 204.683 181.446 205.926 181.446 207.8H183.446ZM179.134 200.992C177.321 200.992 175.832 201.729 174.774 203.179L176.39 204.357C177.06 203.439 177.94 202.992 179.134 202.992V200.992ZM174.764 203.193C173.772 204.604 173.334 206.465 173.334 208.664H175.334C175.334 206.703 175.728 205.3 176.4 204.343L174.764 203.193ZM173.334 208.664V218.6H175.334V208.664H173.334ZM173.334 218.6C173.334 219.262 173.133 219.674 172.806 219.965L174.134 221.459C174.959 220.726 175.334 219.73 175.334 218.6H173.334ZM172.806 219.965C172.455 220.277 171.944 220.48 171.166 220.48V222.48C172.309 222.48 173.334 222.171 174.134 221.459L172.806 219.965Z" fill="#FF6F61" mask="url(#path-10-outside-1_18_2)"/>
<path d="M19.824 221.48C16.208 221.48 13.072 220.792 10.416 219.416C7.76 218.04 5.728 216.056 4.32 213.464C2.912 210.872 2.208 207.8 2.208 204.248C2.208 200.696 2.912 197.624 4.32 195.032C5.728 192.408 7.744 190.408 10.368 189.032C13.024 187.624 16.144 186.92 19.728 186.92C22.704 186.92 25.456 187.432 27.984 188.456C30.512 189.48 32.384 190.84 33.6 192.536C33.984 193.048 34.176 193.576 34.176 194.12C34.176 194.92 33.744 195.64 32.88 196.28C32.496 196.568 32.016 196.712 31.44 196.712C30.96 196.712 30.48 196.616 30 196.424C29.52 196.2 29.12 195.896 28.8 195.512C27.712 194.264 26.448 193.368 25.008 192.824C23.568 192.248 21.808 191.96 19.728 191.96C16.24 191.96 13.52 193.048 11.568 195.224C9.616 197.368 8.64 200.376 8.64 204.248C8.64 208.088 9.616 211.08 11.568 213.224C13.552 215.368 16.304 216.44 19.824 216.44C22.736 216.44 25.008 215.88 26.64 214.76C28.304 213.64 29.136 212.088 29.136 210.104V209.048C29.136 208.376 28.976 207.912 28.656 207.656C28.368 207.4 27.856 207.272 27.12 207.272H20.832C19.936 207.272 19.232 207.064 18.72 206.648C18.208 206.2 17.952 205.592 17.952 204.824C17.952 204.024 18.192 203.416 18.672 203C19.184 202.552 19.904 202.328 20.832 202.328H30.144C32 202.328 33.36 202.728 34.224 203.528C35.088 204.296 35.52 205.528 35.52 207.224V209.096C35.52 211.528 34.864 213.688 33.552 215.576C32.24 217.432 30.384 218.888 27.984 219.944C25.616 220.968 22.896 221.48 19.824 221.48ZM54.4676 221.48C51.6836 221.48 49.2036 220.984 47.0276 219.992C44.8836 218.968 43.2036 217.528 41.9876 215.672C40.7716 213.816 40.1636 211.672 40.1636 209.24C40.1636 206.808 40.7716 204.664 41.9876 202.808C43.2036 200.952 44.8836 199.528 47.0276 198.536C49.2036 197.512 51.6836 197 54.4676 197C57.2516 197 59.7156 197.512 61.8596 198.536C64.0356 199.528 65.7316 200.952 66.9476 202.808C68.1636 204.664 68.7716 206.808 68.7716 209.24C68.7716 211.672 68.1636 213.816 66.9476 215.672C65.7316 217.528 64.0356 218.968 61.8596 219.992C59.7156 220.984 57.2516 221.48 54.4676 221.48ZM54.4676 216.488C56.9316 216.488 58.8676 215.848 60.2756 214.568C61.7156 213.288 62.4356 211.512 62.4356 209.24C62.4356 206.968 61.7156 205.192 60.2756 203.912C58.8676 202.632 56.9316 201.992 54.4676 201.992C52.0036 201.992 50.0516 202.632 48.6116 203.912C47.2036 205.192 46.4996 206.968 46.4996 209.24C46.4996 211.512 47.2036 213.288 48.6116 214.568C50.0516 215.848 52.0036 216.488 54.4676 216.488Z" fill="#FF6F61"/>
</svg>
