<svg width="155" height="165" viewBox="0 0 155 165" fill="none" xmlns="http://www.w3.org/2000/svg">
<path d="M137.058 101.5C100.635 70.044 66.0581 53.5 17.0581 50.5C72.5581 1.50002 138.558 42.5 137.058 101.5Z" fill="#FF6F61"/>
<path d="M63.5581 58.5791C90.2891 66.7845 113.28 80.9646 137.058 101.5L87.5581 87.5C87.5581 87.5 63.1209 76.5442 46.5581 72.5C31.2402 68.7597 6.55811 67 6.55811 67C6.55811 67 21.5581 57 63.5581 58.5791Z" fill="#FF9287"/>
<path d="M46.558 72.5C31.2401 68.7597 6.55805 67 6.55805 67C0.558075 77.5 -0.25832 86.8697 0.0580459 98C46.558 102 78.0581 114 114.058 147C122.437 139.668 128.083 131.407 132.058 121C118.058 106 105.058 97 87.558 87.5C87.558 87.5 63.1209 76.5443 46.558 72.5Z" fill="#FCC7C2"/>
<path d="M53.5581 108.733C74.6511 116.311 93.6301 128.274 114.058 147C99.658 143.049 85.1739 139.559 70.5581 136.5C49.0439 124.284 26.7073 118.025 2.05811 115.5C18.9393 109.163 35.5512 107.343 53.5581 108.733Z" fill="#637284"/>
<path d="M70.5581 136.5C49.0439 124.284 26.7073 118.025 2.05811 115.5C15.5581 154 53.5581 177 100.058 157.5C91.0581 149 81.5581 143 70.5581 136.5Z" fill="#34495E"/>
<path d="M71.0581 0C86.6177 0.723701 105.558 8 100.058 28C84.0581 34.5 72.5581 15.5 71.0581 0Z" fill="#637284"/>
<path d="M71.0581 0C88.5581 11.5 90.5581 15.5 100.058 28C84.0581 34.5 72.5581 15.5 71.0581 0Z" fill="#34495E"/>
<path d="M101.581 29.2669C114.558 5 139.058 17 154.058 30.5C135.558 44 110.058 47.5 101.581 29.2669Z" fill="#637284"/>
<path d="M101.581 29.2669C118.058 24.5 131.558 26 154.058 30.5C135.558 44 110.058 47.5 101.581 29.2669Z" fill="#34495E"/>
</svg>
